<?xml version="1.0" standalone="no"?><!DOCTYPE svg PUBLIC "-//W3C//DTD SVG 1.1//EN" "http://www.w3.org/Graphics/SVG/1.1/DTD/svg11.dtd"><svg class="icon" height="512" viewBox="0 0 1024 1024" version="1.1" xmlns="http://www.w3.org/2000/svg"><path d="M768 397.248l-281.6 313.6c-12.8 12.8-25.6 19.2-44.8 19.2-19.2 0-32-6.4-44.8-19.2l-121.6-115.2c-25.6-25.6-25.6-64 0-89.6 25.6-25.6 64-25.6 89.6 0l76.8 70.4 236.8-262.4c25.6-25.6 64-25.6 89.6-6.4 25.6 19.2 25.6 64 0 89.6M512 0C230.4 0 0 230.4 0 512s230.4 512 512 512 512-230.4 512-512S793.6 0 512 0" fill="#16d122" /></svg>